<svg height="1em" style="flex:none;line-height:1" viewBox="0 0 24 24" width="1em" xmlns="http://www.w3.org/2000/svg"><title>Freebuff</title><path fill="currentColor" d="M5.2 2.5h13.6A3.7 3.7 0 0 1 22.5 6.2v11.6a3.7 3.7 0 0 1-3.7 3.7H5.2a3.7 3.7 0 0 1-3.7-3.7V6.2A3.7 3.7 0 0 1 5.2 2.5Zm0 2A1.7 1.7 0 0 0 3.5 6.2v11.6a1.7 1.7 0 0 0 1.7 1.7h13.6a1.7 1.7 0 0 0 1.7-1.7V6.2a1.7 1.7 0 0 0-1.7-1.7H5.2Zm2.1 3.2h9.4a.9.9 0 0 1 .9.9v2.4a.9.9 0 0 1-.9.9h-3.1v6a.9.9 0 0 1-.9.9h-2.4a.9.9 0 0 1-.9-.9v-6H7.3a.9.9 0 0 1-.9-.9V8.6a.9.9 0 0 1 .9-.9Z"></path></svg>
