<?xml version="1.0" encoding="UTF-8"?>
<svg version="1.1" xmlns="http://www.w3.org/2000/svg" width="225" height="225">
<path d="M0 0 C1.45114994 -0.00599091 2.9022967 -0.01279775 4.35343933 -0.02035522 C8.28134126 -0.03796692 12.20915595 -0.0427086 16.13709354 -0.0439868 C18.5957663 -0.04541189 21.05441712 -0.0496883 23.51308441 -0.05498123 C32.10395201 -0.07346674 40.6947577 -0.08165385 49.28564453 -0.08007812 C57.2717202 -0.07887768 65.2575252 -0.09996471 73.24353242 -0.13156545 C80.11768678 -0.15778939 86.99175308 -0.16844284 93.86595702 -0.16716731 C97.96369567 -0.16665939 102.06119368 -0.1722472 106.15888214 -0.19352341 C110.0168057 -0.21300896 113.87426166 -0.21296067 117.73220253 -0.19849014 C119.14019524 -0.19641353 120.54821801 -0.2010338 121.95615959 -0.21321106 C136.38698576 -0.32984082 148.00233259 3.61511863 158.92480469 13.25146484 C167.32314207 21.95725581 172.80055493 33.25237419 172.84931946 45.39173889 C172.86005241 47.23135696 172.86005241 47.23135696 172.8710022 49.10813904 C172.87384212 50.45938085 172.87655389 51.81062293 172.87915039 53.16186523 C172.88542018 54.59139163 172.89206743 56.02091642 172.89906311 57.45043945 C172.92005013 62.13800941 172.93046262 66.82557948 172.94042969 71.51318359 C172.94447968 73.13159133 172.94859668 74.7499989 172.95277977 76.3684063 C172.97182214 83.97593053 172.98605341 91.58344513 172.99439174 99.1909886 C173.00415147 107.94900122 173.03044181 116.70676025 173.07089263 125.46468359 C173.10114245 132.24878203 173.11586911 139.03280815 173.11917275 145.81697267 C173.12151372 149.8616939 173.13034858 153.90614394 173.15563393 157.95079231 C173.17907469 161.76188917 173.18308447 165.57253936 173.17287254 169.38368988 C173.17238088 170.7735309 173.17859079 172.16339512 173.19242859 173.55316734 C173.32986292 188.18880475 169.59275693 200.53498676 159.67089844 211.54443359 C151.42738701 219.41459758 140.03462448 225.52149642 128.4874115 225.55795288 C126.64789917 225.57074783 126.64789917 225.57074783 124.77122498 225.58380127 C123.42520129 225.58310234 122.0791777 225.58217932 120.7331543 225.58105469 C119.30510101 225.58704411 117.87705096 225.59385061 116.44900513 225.60140991 C112.57875887 225.619042 108.70860113 225.62376431 104.83831859 225.62504148 C102.41498004 225.62646603 99.99166377 225.63074151 97.56833076 225.63603592 C89.09835516 225.65453192 80.6284424 225.66270769 72.15844727 225.66113281 C64.29001402 225.65993379 56.42185614 225.68098997 48.55349249 225.71262014 C41.77868909 225.73887381 35.00397507 225.74949621 28.22912127 225.74822199 C24.19166508 225.74771472 20.15445334 225.75326593 16.11704826 225.77457809 C12.31248032 225.79411268 8.50838602 225.79398262 4.7038002 225.77954483 C2.6631004 225.77649597 0.62239978 225.7930289 -1.41822815 225.8104248 C-12.22050948 225.73770069 -22.5270632 223.77487981 -31.61035156 217.66552734 C-32.51398437 217.07513672 -33.41761719 216.48474609 -34.34863281 215.87646484 C-34.991875 215.35310547 -35.63511719 214.82974609 -36.29785156 214.29052734 C-36.29785156 213.63052734 -36.29785156 212.97052734 -36.29785156 212.29052734 C-36.89726563 212.03142578 -37.49667969 211.77232422 -38.11425781 211.50537109 C-45.88223294 207.18365327 -49.63591798 196.27632808 -52.29785156 188.29052734 C-52.39757199 186.2986441 -52.43719697 184.3035666 -52.44502258 182.3092041 C-52.45575554 180.43367859 -52.45575554 180.43367859 -52.46670532 178.52026367 C-52.46954562 177.13183619 -52.47225735 175.74340843 -52.47485352 174.35498047 C-52.48111934 172.8945703 -52.48776625 171.43416172 -52.49476624 169.97375488 C-52.51580461 165.17310699 -52.5261722 160.3724588 -52.53613281 155.57177734 C-52.54018123 153.91682417 -52.54429817 152.26187117 -52.54848289 150.60691833 C-52.56753844 142.82692792 -52.58176559 135.04694699 -52.59009486 127.26693773 C-52.59985235 118.30174575 -52.62613122 109.33680165 -52.66659576 100.37169695 C-52.69682866 93.43394026 -52.71157074 86.4962543 -52.71487588 79.55843306 C-52.71721928 75.41926035 -52.72608587 71.28035233 -52.75133705 67.14125061 C-52.77474709 63.24072174 -52.77879964 59.34062934 -52.76857567 55.44004822 C-52.76808323 54.01592551 -52.77431671 52.59178039 -52.78813171 51.16772461 C-52.91925182 36.83855644 -49.0064585 24.4746061 -39.29785156 13.66552734 C-27.82186747 2.88117622 -15.23348504 -0.01255692 0 0 Z M27.17480469 56.09521484 C14.92154053 71.19884997 13.00057779 90.1072863 10.83886719 108.7331543 C9.58775281 119.07065323 7.03793538 127.668634 2.38964844 137.04052734 C0.07623314 141.8659845 -0.88866208 145.19708397 -0.02050781 150.48583984 C0.86113827 152.68757223 1.86871815 153.79727568 3.70214844 155.29052734 C10.74623389 157.63855583 16.13585965 156.10465111 22.70214844 153.29052734 C22.20714844 154.30115234 21.71214844 155.31177734 21.20214844 156.35302734 C18.84133872 162.66734617 18.78650703 169.67195404 19.70214844 176.29052734 C22.44030043 181.18947569 25.07635074 184.18735911 30.53808594 185.84912109 C39.35065034 187.64662972 48.54098615 186.39195973 56.25683594 181.75537109 C57.82106837 180.69838975 59.36769714 179.61456213 60.88964844 178.49755859 C62.70214844 177.29052734 62.70214844 177.29052734 64.70214844 177.29052734 C66.03548177 179.29052734 67.3688151 181.29052734 68.70214844 183.29052734 C72.4421715 186.69633558 75.22138767 186.81282234 80.12402344 186.62646484 C90.23648239 185.3087808 98.06888879 176.62586711 104.38964844 169.22802734 C119.98045794 148.12160127 123.36203526 117.77449538 120.16699219 92.41943359 C117.51229332 74.84475204 110.81403523 59.74745345 96.54589844 48.60693359 C87.16454165 41.98382783 77.80968949 39.11307136 66.38964844 39.10302734 C65.66841797 39.09078125 64.9471875 39.07853516 64.20410156 39.06591797 C49.89410643 39.02741574 36.79738734 45.69318883 27.17480469 56.09521484 Z " fill="#8041E6" transform="translate(52.2978515625,-0.29052734375)"/>
<path d="M0 0 C0.66 0 1.32 0 2 0 C1.14159587 2.78981341 0.26449711 5.47881382 -1.05859375 8.0859375 C-3.53070612 12.96173007 -4.63641122 16.65096935 -3.6640625 22.11328125 C-3.07432403 24.22283902 -3.07432403 24.22283902 -0.9375 26.0625 C4.81871194 27.89958892 9.50823022 27.51052333 15 25 C15.99 25 16.98 25 18 25 C17.125 30.75 17.125 30.75 16 33 C15.84938099 35.47362762 15.76874683 37.90041815 15.75 40.375 C15.729375 41.04789063 15.70875 41.72078125 15.6875 42.4140625 C15.65407617 46.65888891 16.16379813 48.85032319 19 52 C19 52.66 19 53.32 19 54 C28.28087823 57.84984578 36.99747568 58.21673845 46.57421875 55.0703125 C50.0770915 53.52476156 53.05275952 51.42439383 56.08984375 49.109375 C56.72019531 48.74328125 57.35054688 48.3771875 58 48 C62.01412909 49.33804303 62.73005954 51.52415367 65 55 C69.29705169 57.86470113 72.95905053 57.58019897 78 57 C88.83329322 53.97155593 97.64041315 43.38915338 103 34 C108.1151382 23.73274669 111.2657233 13.09953908 114 2 C114.66 2 115.32 2 116 2 C116.34843707 8.38801289 115.26306311 13.05681558 113 19 C112.608125 20.19625 112.21625 21.3925 111.8125 22.625 C110.23194854 26.79496556 108.15017175 30.69228685 106.0625 34.625 C105.72645752 35.25873535 105.39041504 35.8924707 105.04418945 36.54541016 C98.9478847 47.83530044 98.9478847 47.83530044 94 50 C93.10474609 50.91652344 93.10474609 50.91652344 92.19140625 51.8515625 C89.9127749 54.08551481 87.67229712 55.61654652 84.9375 57.25 C83.65166016 58.03117187 83.65166016 58.03117187 82.33984375 58.828125 C80 60 80 60 77 60 C77 60.66 77 61.32 77 62 C67.57668161 61.31838565 67.57668161 61.31838565 63.7109375 58.0859375 C62.02144888 56.11834375 60.4598625 54.14246032 59 52 C56.72382901 53.10915112 54.62858243 54.24142142 52.5 55.625 C50 57 50 57 46 57 C46 57.66 46 58.32 46 59 C41.60793615 60.67696983 37.9452197 61.27163696 33.25 61.25 C32.12078125 61.25515625 30.9915625 61.2603125 29.828125 61.265625 C27 61 27 61 25 59 C24.278125 58.773125 23.55625 58.54625 22.8125 58.3125 C18.60741047 56.35012489 15.64159749 53.82997683 13 50 C11.31527118 44.96713922 10.36324168 40.13893974 12 35 C12.66 35 13.32 35 14 35 C13.505 32.525 13.505 32.525 13 30 C11.55367187 30.19529297 11.55367187 30.19529297 10.078125 30.39453125 C8.81484375 30.53246094 7.5515625 30.67039063 6.25 30.8125 C4.99703125 30.96332031 3.7440625 31.11414063 2.453125 31.26953125 C-1 31 -1 31 -3.328125 28.76171875 C-4.15570313 27.39466797 -4.15570313 27.39466797 -5 26 C-5.4125 25.34128906 -5.825 24.68257812 -6.25 24.00390625 C-8.22297807 18.73235547 -6.80643007 12.80944143 -4.58984375 7.8359375 C-3.1327176 5.16970666 -1.62394534 2.56752214 0 0 Z " fill="#6332B7" transform="translate(57,128)"/>
<path d="M0 0 C3.31724788 2.13251649 4.07366367 5.2946547 5 9 C5.34028928 13.76404989 5.15481668 17.69036664 3 22 C0.1875 24 0.1875 24 -3 25 C-6.21381808 24.19654548 -7.65941419 23.34058581 -10 21 C-11.91454613 15.28090707 -11.77458188 9.00687123 -9.625 3.4375 C-6.97571467 -0.536428 -4.59026112 -0.37471519 0 0 Z " fill="#0F0C0F" transform="translate(148,79)"/>
<path d="M0 0 C3.1875 0.25 3.1875 0.25 5.4375 1.1875 C8.23693552 4.48683472 8.87258533 7.98860152 9.1875 12.25 C8.8323868 16.21231575 8.32386442 19.80431002 5.82421875 22.984375 C3.0638565 25.11887946 0.52874277 24.6079903 -2.8125 24.25 C-4.91608381 22.70737187 -5.65304159 21.56891683 -6.8125 19.25 C-6.96151491 17.14946284 -7.03388453 15.04312175 -7.0625 12.9375 C-7.08828125 11.80699219 -7.1140625 10.67648438 -7.140625 9.51171875 C-6.65904272 4.72456155 -5.07806724 0.45138375 0 0 Z " fill="#0C090B" transform="translate(118.8125,78.75)"/>
<path d="M0 0 C2.65301197 2.56708446 4.44062943 4.65849163 6 8 C6.66 8.66 7.32 9.32 8 10 C8.75 12.5 8.75 12.5 9 15 C8.34 15.66 7.68 16.32 7 17 C7.1563844 21.59954115 8.54225123 25.88929039 11.3125 29.5625 C13.75088409 32.23778006 13.75088409 32.23778006 16.8125 32.375 C17.534375 32.25125 18.25625 32.1275 19 32 C19.33 32.99 19.66 33.98 20 35 C20.66 34.34 21.32 33.68 22 33 C23.4606285 35.64738916 24 36.89448334 24 40 C29.21824154 43.37368573 33.28367963 44.70949977 39.4375 45.25 C40.16904297 45.32734375 40.90058594 45.4046875 41.65429688 45.484375 C43.43475885 45.6705671 45.21723355 45.83734664 47 46 C47.33 46.99 47.66 47.98 48 49 C36.31023379 49.91684441 25.01657666 45.33613252 16 38 C16 37.34 16 36.68 16 36 C15.40058594 35.74089844 14.80117187 35.48179687 14.18359375 35.21484375 C6.41561862 30.89312592 2.66193358 19.98580074 0 12 C-0.068991 9.93854893 -0.08467727 7.87498599 -0.0625 5.8125 C-0.05347656 4.72582031 -0.04445312 3.63914063 -0.03515625 2.51953125 C-0.02355469 1.68808594 -0.01195312 0.85664063 0 0 Z " fill="#773AD8" transform="translate(0,176)"/>
<path d="M0 0 C0.99 0.33 1.98 0.66 3 1 C2.49210937 1.49886719 1.98421875 1.99773438 1.4609375 2.51171875 C-12.71192652 17.29502448 -14.81102472 37.18083395 -16.96166992 56.67700195 C-17.58894011 62.28033494 -18.48957099 67.5650375 -20 73 C-20.66 72.67 -21.32 72.34 -22 72 C-21.47080033 67.7860454 -20.93757351 63.57262415 -20.40087891 59.35961914 C-20.21947804 57.93136825 -20.03910948 56.50298579 -19.85986328 55.07446289 C-18.80421295 46.66759394 -17.60908315 38.32209848 -16 30 C-15.68696149 28.25009625 -15.37439694 26.50010758 -15.0625 24.75 C-14.21619935 20.51172633 -12.86229211 16.89388351 -11 13 C-10.34 13 -9.68 13 -9 13 C-8.566875 11.88625 -8.566875 11.88625 -8.125 10.75 C-7.17697356 8.43260203 -6.15154089 6.22082885 -5 4 C-4.34 4 -3.68 4 -3 4 C-2.67 3.01 -2.34 2.02 -2 1 C-1.34 0.67 -0.68 0.34 0 0 Z " fill="#6A35C1" transform="translate(81,52)"/>
<path d="M0 0 C0.66 0 1.32 0 2 0 C2.89235934 11.60067144 -1.98639346 21.96859 -9 31 C-16.33377259 39.13766689 -27.82195952 46.46618535 -38.9921875 47.1953125 C-40.41917969 47.16050781 -40.41917969 47.16050781 -41.875 47.125 C-43.32519531 47.09792969 -43.32519531 47.09792969 -44.8046875 47.0703125 C-45.52914062 47.04710937 -46.25359375 47.02390625 -47 47 C-46.67 46.34 -46.34 45.68 -46 45 C-44.11373442 44.70216859 -42.21394931 44.4891123 -40.3125 44.3125 C-32.14545194 43.20127554 -22.9438861 39.9438861 -17 34 C-15.96254199 33.16143291 -14.92059741 32.32839601 -13.875 31.5 C-12.92625 30.675 -11.9775 29.85 -11 29 C-11 28.34 -11 27.68 -11 27 C-10.278125 26.401875 -9.55625 25.80375 -8.8125 25.1875 C-2.37924128 19.01083849 -0.43536781 8.56223356 0 0 Z " fill="#5E2DA8" transform="translate(223,178)"/>
<path d="M0 0 C0.33 0 0.66 0 1 0 C2.00271125 8.62331674 -1.87072417 17.42943561 -6.8125 24.375 C-10.05622633 28.31440924 -13.70280053 32.21638901 -18 35 C-19.32 35 -20.64 35 -22 35 C-22 32.69 -22 30.38 -22 28 C-19.525 28.99 -19.525 28.99 -17 30 C-17 29.34 -17 28.68 -17 28 C-15.37446717 26.29319053 -13.70884005 24.62339805 -12 23 C-12.33 22.34 -12.66 21.68 -13 21 C-12.34 20.34 -11.68 19.68 -11 19 C-11 19.66 -11 20.32 -11 21 C-10.01 20.67 -9.02 20.34 -8 20 C-6.81758345 16.61175003 -6.81758345 16.61175003 -6 13 C-5.67 12.01 -5.34 11.02 -5 10 C-4.34 10 -3.68 10 -3 10 C-3 9.34 -3 8.68 -3 8 C-3.99 7.67 -4.98 7.34 -6 7 C-5.01 6.67 -4.02 6.34 -3 6 C-3 5.34 -3 4.68 -3 4 C-2.34 4 -1.68 4 -1 4 C-0.67 2.68 -0.34 1.36 0 0 Z " fill="#7639D3" transform="translate(222,180)"/>
<path d="M0 0 C-0.33 0.99 -0.66 1.98 -1 3 C-3.38371745 3.8946371 -5.68191022 4.62855079 -8.125 5.3125 C-14.27403565 7.19117129 -18.62315452 9.26586101 -23 14 C-23.845625 14.721875 -24.69125 15.44375 -25.5625 16.1875 C-29.18085295 20.36252264 -31.53823688 25.07647375 -34 30 C-34.33386719 30.66773437 -34.66773438 31.33546875 -35.01171875 32.0234375 C-36.8357528 35.95623287 -37.56161451 39.70382216 -38 44 C-38.33 44 -38.66 44 -39 44 C-40.50749574 33.61502937 -35.79110155 25.43940657 -30.0234375 17.1640625 C-23.24917144 8.91823302 -11.09520348 0 0 0 Z " fill="#7440C7" transform="translate(40,0)"/>
<path d="M0 0 C11.59635882 4.24455165 19.29791839 13.84929175 24.4375 24.8125 C25.80635931 28.16530078 26.62868973 31.3797249 27 35 C25.515 34.505 25.515 34.505 24 34 C23.05078125 31.27734375 23.05078125 31.27734375 22.3125 27.9375 C22.06113281 26.83277344 21.80976563 25.72804688 21.55078125 24.58984375 C21.36902344 23.73519531 21.18726563 22.88054688 21 22 C20.34 22 19.68 22 19 22 C18.608125 21.13375 18.21625 20.2675 17.8125 19.375 C15.08123251 14.28919156 12.32753086 10.49728009 7 8 C4.25689854 5.45283435 2.07906656 3.11859984 0 0 Z " fill="#793BCA" transform="translate(198,5)"/>
<path d="M0 0 C3 1 3 1 5 3 C7.10820797 2.6814823 7.10820797 2.6814823 9 2 C8.67 3.32 8.34 4.64 8 6 C6.906875 5.83628906 5.81375 5.67257813 4.6875 5.50390625 C-0.54454258 4.84990093 -5.73493662 4.89029598 -11 4.9375 C-11.96550781 4.94201172 -12.93101563 4.94652344 -13.92578125 4.95117188 C-16.28392089 4.96284583 -18.64192602 4.97921979 -21 5 C-21.33 4.01 -21.66 3.02 -22 2 C-18.78548731 0.39274365 -15.56387464 0.94251815 -12 1 C-12 1.66 -12 2.32 -12 3 C-11.01 2.34 -10.02 1.68 -9 1 C-6.66702567 0.95907063 -4.33294775 0.95758277 -2 1 C-1.34 0.67 -0.68 0.34 0 0 Z " fill="#8D44F7" transform="translate(126,33)"/>
<path d="M0 0 C1.76462683 3.08809695 2 4.23312136 2 8 C1.67 7.34 1.34 6.68 1 6 C0.75765625 6.54269531 0.5153125 7.08539063 0.265625 7.64453125 C-2.56429652 13.68532526 -2.56429652 13.68532526 -5.25 15.625 C-6.11625 16.305625 -6.11625 16.305625 -7 17 C-7.33397787 20.12586875 -7.33397787 20.12586875 -7 23 C-7.99 22.67 -8.98 22.34 -10 22 C-9.66154318 14.55395007 -6.33880706 6.66191742 -1.3046875 1.140625 C-0.87414063 0.76421875 -0.44359375 0.3878125 0 0 Z " fill="#8A45F6" transform="translate(13,17)"/>
<path d="M0 0 C2.64 0 5.28 0 8 0 C7.814375 0.61875 7.62875 1.2375 7.4375 1.875 C6.76313824 4.04160178 6.76313824 4.04160178 8 6 C5.03 6 2.06 6 -1 6 C-1.33 6.66 -1.66 7.32 -2 8 C-3.32 8 -4.64 8 -6 8 C-6 7.34 -6 6.68 -6 6 C-6.598125 6.33 -7.19625 6.66 -7.8125 7 C-10 8 -10 8 -13 8 C-13 7.34 -13 6.68 -13 6 C-11.71802734 5.60167969 -11.71802734 5.60167969 -10.41015625 5.1953125 C-9.30542969 4.84210937 -8.20070313 4.48890625 -7.0625 4.125 C-5.96035156 3.77695312 -4.85820313 3.42890625 -3.72265625 3.0703125 C-0.87121196 2.29975705 -0.87121196 2.29975705 0 0 Z " fill="#8B45F7" transform="translate(40,0)"/>
<path d="M0 0 C0.886875 0.78375 1.77375 1.5675 2.6875 2.375 C7.29905019 6.20000074 12.26697106 7.42622735 18 9 C17.01 9.33 16.02 9.66 15 10 C14.67 10.66 14.34 11.32 14 12 C9.33333333 12 4.66666667 12 0 12 C0.33 10.68 0.66 9.36 1 8 C0.34 7.67 -0.32 7.34 -1 7 C-0.01 7 0.98 7 2 7 C1.67 6.01 1.34 5.02 1 4 C0.65772583 2.66893378 0.32248257 1.33599921 0 0 Z " fill="#7639D3" transform="translate(72,180)"/>
<path d="M0 0 C0.99 0.33 1.98 0.66 3 1 C2.34 2.32 1.68 3.64 1 5 C1.99 5.66 2.98 6.32 4 7 C3.67 7.99 3.34 8.98 3 10 C2.01 10 1.02 10 0 10 C0 9.34 0 8.68 0 8 C-0.928125 8.474375 -1.85625 8.94875 -2.8125 9.4375 C-6 11 -6 11 -9 12 C-9.33 12.99 -9.66 13.98 -10 15 C-10.99 14.67 -11.98 14.34 -13 14 C-13.33 13.34 -13.66 12.68 -14 12 C-11.23690178 9.23690178 -8.43198929 6.67387731 -4.875 5 C-2.53035817 3.74952436 -1.45834509 2.18751764 0 0 Z " fill="#773AD3" transform="translate(152,176)"/>
<path d="M0 0 C0.73605469 0.47050781 1.47210937 0.94101563 2.23046875 1.42578125 C3.20628906 2.04839844 4.18210937 2.67101562 5.1875 3.3125 C6.15042969 3.92738281 7.11335938 4.54226562 8.10546875 5.17578125 C9.06066406 5.77777344 10.01585937 6.37976563 11 7 C12.16015625 7.81984375 12.16015625 7.81984375 13.34375 8.65625 C16.94363323 10.4773674 20.33290243 10.79985377 24.3125 11.1875 C25.05306641 11.26935547 25.79363281 11.35121094 26.55664062 11.43554688 C28.36994923 11.63442588 30.18484969 11.81869827 32 12 C32.495 13.485 32.495 13.485 33 15 C21.31023379 15.91684441 10.01657666 11.33613252 1 4 C1 3.34 1 2.68 1 2 C0.34 1.67 -0.32 1.34 -1 1 C-0.67 0.67 -0.34 0.34 0 0 Z " fill="#5623A1" transform="translate(15,210)"/>
<path d="M0 0 C2.85173062 2.85173062 2.25846583 4.81337869 2.265625 8.80078125 C2.26753845 9.47417038 2.2694519 10.14755951 2.27142334 10.84135437 C2.27278517 12.26785658 2.26908886 13.69437117 2.26074219 15.12084961 C2.25009193 17.29374464 2.26061094 19.46580348 2.2734375 21.63867188 C2.27211492 23.02604348 2.26955051 24.41341457 2.265625 25.80078125 C2.26336914 27.06059814 2.26111328 28.32041504 2.25878906 29.6184082 C2.01097053 32.85664835 1.39478722 35.09234651 0 38 C-0.33 38 -0.66 38 -1 38 C-0.67 25.46 -0.34 12.92 0 0 Z " fill="#6A37BD" transform="translate(173,90)"/>
<path d="M0 0 C0.66 0 1.32 0 2 0 C2 0.66 2 1.32 2 2 C2.66 2 3.32 2 4 2 C4.4125 3.051875 4.825 4.10375 5.25 5.1875 C6.73669297 8.60550439 8.29203705 11.37168302 11 14 C13.66928121 14.41870553 13.66928121 14.41870553 16 14 C16.33 14.99 16.66 15.98 17 17 C17.66 16.34 18.32 15.68 19 15 C19.66 16.32 20.32 17.64 21 19 C20.34 19.99 19.68 20.98 19 22 C18.54109375 21.66226563 18.0821875 21.32453125 17.609375 20.9765625 C16.99578125 20.53054687 16.3821875 20.08453125 15.75 19.625 C15.14671875 19.18414062 14.5434375 18.74328125 13.921875 18.2890625 C12.04453073 16.94864791 12.04453073 16.94864791 9.9609375 16.1015625 C5.20191732 13.4281687 2.52047234 7.34849652 0.625 2.4375 C0.41875 1.633125 0.2125 0.82875 0 0 Z " fill="#633A9C" transform="translate(3,194)"/>
<path d="M0 0 C7.84816886 5.76600161 13.28525379 13.65583202 15.4375 23.25 C15.623125 24.4875 15.80875 25.725 16 27 C15.34 27 14.68 27 14 27 C13.731875 26.26136719 13.46375 25.52273437 13.1875 24.76171875 C10.50411881 17.81493916 7.2949629 12.21468997 2.671875 6.375 C1.10119746 4.14375715 0.41908244 2.66240612 0 0 Z " fill="#7842C6" transform="translate(155,52)"/>
<path d="M0 0 C1.18335938 -0.02416992 1.18335938 -0.02416992 2.390625 -0.04882812 C3.5353125 -0.04979492 3.5353125 -0.04979492 4.703125 -0.05078125 C5.38536133 -0.05376221 6.06759766 -0.05674316 6.77050781 -0.05981445 C9.34386841 0.42419824 10.77443111 1.64199031 12.75 3.3125 C12.12544922 3.30726318 11.50089844 3.30202637 10.85742188 3.29663086 C7.98829176 3.27565924 5.11917785 3.26277624 2.25 3.25 C1.26773438 3.24162109 0.28546875 3.23324219 -0.7265625 3.22460938 C-6.33674757 3.20590876 -11.70150899 3.473621 -17.25 4.3125 C-17.25 3.6525 -17.25 2.9925 -17.25 2.3125 C-11.37495885 0.62912634 -6.0996787 -0.02541533 0 0 Z " fill="#733FC6" transform="translate(119.25,36.6875)"/>
<path d="M0 0 C1.32 0 2.64 0 4 0 C3.25 7.625 3.25 7.625 1 11 C0.61500109 12.65549531 0.27206865 14.3222433 0 16 C-0.99 16.33 -1.98 16.66 -3 17 C-2.34 14.36 -1.68 11.72 -1 9 C-1.66 8.67 -2.32 8.34 -3 8 C-2.09456151 5.28368454 -1.07525194 2.65228812 0 0 Z " fill="#7A3CDD" transform="translate(51,128)"/>
<path d="M0 0 C0.33 0.66 0.66 1.32 1 2 C1.99 2 2.98 2 4 2 C4 2.66 4 3.32 4 4 C5.65 4.33 7.3 4.66 9 5 C9.33 5.99 9.66 6.98 10 8 C3.84777564 7.56826496 0.18082051 6.34594658 -5 3 C-4.360625 2.690625 -3.72125 2.38125 -3.0625 2.0625 C-1.06389179 1.1654837 -1.06389179 1.1654837 0 0 Z " fill="#7238CD" transform="translate(29,214)"/>
<path d="M0 0 C0.66 0.66 1.32 1.32 2 2 C1.57469657 5.82773086 0.26430036 9.3756723 -1 13 C-2.65 13 -4.3 13 -6 13 C-4.31326082 8.50202887 -2.18326108 4.27113698 0 0 Z " fill="#773BD9" transform="translate(166,155)"/>
<path d="M0 0 C0.78375 0.04125 1.5675 0.0825 2.375 0.125 C2.375 1.445 2.375 2.765 2.375 4.125 C-0.625 6.375 -0.625 6.375 -3.625 8.125 C-4.615 7.465 -5.605 6.805 -6.625 6.125 C-3.85227273 0.18344156 -3.85227273 0.18344156 0 0 Z " fill="#050304" transform="translate(145.625,79.875)"/>
<path d="M0 0 C0.66 0 1.32 0 2 0 C3.625 2 3.625 2 5 4 C3.3767313 4.6708712 1.75132422 5.33657029 0.125 6 C-1.23238281 6.556875 -1.23238281 6.556875 -2.6171875 7.125 C-5 8 -5 8 -7 8 C-7.33 6.68 -7.66 5.36 -8 4 C-6.576875 3.566875 -6.576875 3.566875 -5.125 3.125 C-1.94788422 2.23174891 -1.94788422 2.23174891 0 0 Z " fill="#7239CC" transform="translate(192,215)"/>
<path d="M0 0 C0.99 0.33 1.98 0.66 3 1 C2.67 1.66 2.34 2.32 2 3 C1.34 3 0.68 3 0 3 C-0.12375 3.9075 -0.2475 4.815 -0.375 5.75 C-0.92109677 8.58970323 -1.57263803 10.52590591 -3 13 C-5 12 -5 12 -6 9 C-4.87391379 5.00751252 -3.05849168 2.75264252 0 0 Z " fill="#8744F2" transform="translate(70,62)"/>
<path d="M0 0 C1.32 0.33 2.64 0.66 4 1 C4.0825 1.70125 4.165 2.4025 4.25 3.125 C5.17027725 6.65272947 6.88126977 9.06111614 9 12 C8.34 12 7.68 12 7 12 C6.67 12.66 6.34 13.32 6 14 C5.67 13.34 5.34 12.68 5 12 C5.33 11.01 5.66 10.02 6 9 C5.236875 8.7525 4.47375 8.505 3.6875 8.25 C0.7635955 6.89004442 -0.30004356 5.68414174 -2 3 C-1.34 3 -0.68 3 0 3 C0 2.01 0 1.02 0 0 Z " fill="#8E42F5" transform="translate(148,40)"/>
<path d="M0 0 C0.53625 0.28875 1.0725 0.5775 1.625 0.875 C4.35280484 2.16711808 7.12612718 3.08558592 10 4 C10 4.66 10 5.32 10 6 C10.99 6.33 11.98 6.66 13 7 C11.39620659 7.05416188 9.79188594 7.09286638 8.1875 7.125 C7.29417969 7.14820313 6.40085937 7.17140625 5.48046875 7.1953125 C3 7 3 7 0 5 C-0.1875 2.375 -0.1875 2.375 0 0 Z " fill="#7638D0" transform="translate(118,184)"/>
<path d="M0 0 C1.17349336 2.85780148 1.00960778 3.9727659 -0.0390625 6.9453125 C-0.82410156 8.51925781 -0.82410156 8.51925781 -1.625 10.125 C-2.13289062 11.17945313 -2.64078125 12.23390625 -3.1640625 13.3203125 C-5.2226977 16.32504388 -6.54470546 17.04478206 -10 18 C-9.44570312 17.03578125 -8.89140625 16.0715625 -8.3203125 15.078125 C-7.58848403 13.80211639 -6.8567164 12.52607288 -6.125 11.25 C-5.57779297 10.29867187 -5.57779297 10.29867187 -5.01953125 9.328125 C-3.2603169 6.25749632 -1.53126626 3.19148125 0 0 Z " fill="#6939B1" transform="translate(164,154)"/>
<path d="M0 0 C2.64 0.33 5.28 0.66 8 1 C8.33 2.65 8.66 4.3 9 6 C8.34 6 7.68 6 7 6 C6.34 5.34 5.68 4.68 5 4 C4.01 4.66 3.02 5.32 2 6 C0.02 5.01 -1.96 4.02 -4 3 C-2.68 2.67 -1.36 2.34 0 2 C0 1.34 0 0.68 0 0 Z " fill="#8D47F8" transform="translate(184,2)"/>
<path d="M0 0 C-0.99 0.33 -1.98 0.66 -3 1 C-2.67 1.99 -2.34 2.98 -2 4 C-3.32 5.32 -4.64 6.64 -6 8 C-6.99 7.01 -7.98 6.02 -9 5 C-8.34 4.67 -7.68 4.34 -7 4 C-7.99 3.34 -8.98 2.68 -10 2 C-6.16991045 -0.55339303 -4.41711378 -1.47237126 0 0 Z " fill="#8A46F5" transform="translate(82,49)"/>
<path d="M0 0 C0.33 0 0.66 0 1 0 C1.1953125 1.98567708 1.390625 3.97135417 1.5859375 5.95703125 C1.92665391 8.29988142 1.92665391 8.29988142 4 11 C6 14 6 14 6 17 C4.125 16.75 4.125 16.75 2 16 C-0.27746471 12.64706585 -0.21133851 9.72157137 -0.125 5.75 C-0.10695313 4.67234375 -0.08890625 3.5946875 -0.0703125 2.484375 C-0.04710938 1.66453125 -0.02390625 0.8446875 0 0 Z " fill="#201A1F" transform="translate(112,86)"/>
<path d="M0 0 C3.29201287 3.29201287 2.45967456 7.64207176 2.65625 12.12890625 C2.7696875 13.07636719 2.883125 14.02382812 3 15 C3.66 15.33 4.32 15.66 5 16 C4.01 16.33 3.02 16.66 2 17 C0.14868517 13.07142246 -0.22004943 10.01224888 -0.125 5.6875 C-0.10695312 4.61886719 -0.08890625 3.55023438 -0.0703125 2.44921875 C-0.04710937 1.64097656 -0.02390625 0.83273438 0 0 Z " fill="#6426BD" transform="translate(0,176)"/>
<path d="M0 0 C2.76262553 0.3810518 3.84143894 0.83597132 5.8125 2.875 C6.204375 3.57625 6.59625 4.2775 7 5 C6.67 5.99 6.34 6.98 6 8 C3.9375 8.6875 3.9375 8.6875 2 9 C2 8.34 2 7.68 2 7 C1.34 7 0.68 7 0 7 C0.33 6.34 0.66 5.68 1 5 C1 3.27917076 0.4277972 1.65771414 0 0 Z " fill="#8B45F4" transform="translate(208,16)"/>
<path d="M0 0 C0.66 0 1.32 0 2 0 C3.33808088 4.01424265 3.19932094 7.81426024 3 12 C2.01 13.485 2.01 13.485 1 15 C0.63536268 13.25215171 0.2836922 11.50159498 -0.0625 9.75 C-0.25972656 8.77546875 -0.45695312 7.8009375 -0.66015625 6.796875 C-0.98397535 4.131881 -0.85503199 2.51128277 0 0 Z " fill="#6A2CC7" transform="translate(69,163)"/>
<path d="M0 0 C0.33 1.32 0.66 2.64 1 4 C0.01 4.33 -0.98 4.66 -2 5 C-2.99 4.01 -3.98 3.02 -5 2 C-5 2.66 -5 3.32 -5 4 C-6.98 4 -8.96 4 -11 4 C-11 3.34 -11 2.68 -11 2 C-7.17010894 0.19769832 -4.21878192 -0.19622241 0 0 Z " fill="#7738D3" transform="translate(104,187)"/>
<path d="M0 0 C0 1.65 0 3.3 0 5 C-6.625 7 -6.625 7 -10 7 C-9.34 6.67 -8.68 6.34 -8 6 C-7.5359375 5.0409375 -7.5359375 5.0409375 -7.0625 4.0625 C-5.34770528 0.73378083 -3.66958772 0 0 0 Z " fill="#8C48F7" transform="translate(24,10)"/>
<path d="M0 0 C1.70884005 1.62339805 3.37446717 3.29319053 5 5 C5 5.66 5 6.32 5 7 C5.763125 7.28875 6.52625 7.5775 7.3125 7.875 C10 9 10 9 13 11 C10.4375 11.4375 10.4375 11.4375 7 11 C4.25156486 9.00861885 1.92418326 6.80088214 0 4 C0 2.68 0 1.36 0 0 Z " fill="#5D30AA" transform="translate(71,175)"/>
<path d="M0 0 C4.63264733 -0.70191626 7.02442309 1.04292727 10.64453125 3.61328125 C12 5 12 5 12 8 C7.44328408 6.48109469 3.68276708 4.04597738 0 1 C0 0.67 0 0.34 0 0 Z " fill="#7B45CF" transform="translate(142,44)"/>
<path d="M0 0 C-0.33 0.99 -0.66 1.98 -1 3 C-3.21484375 3.94921875 -3.21484375 3.94921875 -5.9375 4.6875 C-6.83339844 4.93886719 -7.72929688 5.19023438 -8.65234375 5.44921875 C-11 6 -11 6 -13 6 C-13 5.34 -13 4.68 -13 4 C-11.2097939 3.32942113 -9.41778511 2.6636531 -7.625 2 C-6.62726562 1.62875 -5.62953125 1.2575 -4.6015625 0.875 C-2 -0 -2 -0 0 0 Z " fill="#693AD1" transform="translate(40,0)"/>
<path d="M0 0 C2 1 2 1 3 3 C3.66 2.34 4.32 1.68 5 1 C5.66 2.32 6.32 3.64 7 5 C6.01 6.485 6.01 6.485 5 8 C3.85050412 7.21366078 2.70551011 6.42073742 1.5625 5.625 C0.92441406 5.18414062 0.28632813 4.74328125 -0.37109375 4.2890625 C-2 3 -2 3 -3 1 C-2.01 0.67 -1.02 0.34 0 0 Z " fill="#6E35C8" transform="translate(17,208)"/>
<path d="M0 0 C0 0.66 0 1.32 0 2 C1.32 1.34 2.64 0.68 4 0 C3.125 4.75 3.125 4.75 2 7 C-1.73639216 5.75453595 -2.18756513 4.36595047 -4 1 C-2 0 -2 0 0 0 Z " fill="#7137CE" transform="translate(12,200)"/>
<path d="M0 0 C0.99 0 1.98 0 3 0 C2.28547412 4.76350585 1.20465156 9.34201396 0 14 C-0.33 14 -0.66 14 -1 14 C-1.02685938 11.85423363 -1.04633088 9.70837355 -1.0625 7.5625 C-1.07410156 6.36753906 -1.08570312 5.17257813 -1.09765625 3.94140625 C-1 1 -1 1 0 0 Z " fill="#6B44AA" transform="translate(72,153)"/>
<path d="M0 0 C0.33 0.66 0.66 1.32 1 2 C5.29 2 9.58 2 14 2 C13.67 2.66 13.34 3.32 13 4 C10.87561661 4.08078641 8.7503677 4.13909141 6.625 4.1875 C5.44164063 4.22230469 4.25828125 4.25710937 3.0390625 4.29296875 C1.53472656 4.14794922 1.53472656 4.14794922 0 4 C-0.66 3.01 -1.32 2.02 -2 1 C-1.34 0.67 -0.68 0.34 0 0 Z " fill="#6125BF" transform="translate(84,185)"/>
<path d="M0 0 C-0.3125 1.9375 -0.3125 1.9375 -1 4 C-1.99 4.33 -2.98 4.66 -4 5 C-4 3.68 -4 2.36 -4 1 C-4.99 1.33 -5.98 1.66 -7 2 C-7.66 1.67 -8.32 1.34 -9 1 C-9 0.34 -9 -0.32 -9 -1 C-3.375 -2.25 -3.375 -2.25 0 0 Z " fill="#7C38DF" transform="translate(72,159)"/>
<path d="M0 0 C0.99 0.33 1.98 0.66 3 1 C0.36 3.97 -2.28 6.94 -5 10 C-6 7 -6 7 -5 4 C-4.34 4 -3.68 4 -3 4 C-2.67 3.01 -2.34 2.02 -2 1 C-1.34 0.67 -0.68 0.34 0 0 Z " fill="#7446B9" transform="translate(81,52)"/>
<path d="M0 0 C1.26026798 2.52053595 0.91874445 3.8542098 0.5625 6.625 C0.46066406 7.44226563 0.35882813 8.25953125 0.25390625 9.1015625 C0.17011719 9.72804688 0.08632813 10.35453125 0 11 C-1.32 10.67 -2.64 10.34 -4 10 C-2.6 2.6 -2.6 2.6 0 0 Z " fill="#7434D7" transform="translate(60,117)"/>
<path d="M0 0 C-3.54039134 2.9156164 -7.1626772 5.50127818 -11 8 C-10.67278832 4.94602429 -9.96883223 3.96883223 -7.75 1.75 C-4.79010327 -0.13357065 -3.42491198 -0.39141851 0 0 Z " fill="#7544C5" transform="translate(95,44)"/>
<path d="M0 0 C2 1.625 2 1.625 4 4 C4.25 7.25 4.25 7.25 4 10 C2.68 9.67 1.36 9.34 0 9 C0 6.03 0 3.06 0 0 Z " fill="#884AF0" transform="translate(0,38)"/>
<path d="M0 0 C1.32 0.33 2.64 0.66 4 1 C2.71186658 1.83878455 1.41936744 2.67086783 0.125 3.5 C-0.59429687 3.9640625 -1.31359375 4.428125 -2.0546875 4.90625 C-4 6 -4 6 -6 6 C-5.34 4.35 -4.68 2.7 -4 1 C-2.68 1.33 -1.36 1.66 0 2 C0 1.34 0 0.68 0 0 Z " fill="#8C45F4" transform="translate(92,40)"/>
<path d="M0 0 C1.48555383 0.92734572 2.96327506 1.86724813 4.4375 2.8125 C5.26121094 3.33457031 6.08492187 3.85664063 6.93359375 4.39453125 C9 6 9 6 10 9 C6.56072421 7.7580393 3.74792181 6.44259716 1 4 C1 3.34 1 2.68 1 2 C0.34 1.67 -0.32 1.34 -1 1 C-0.67 0.67 -0.34 0.34 0 0 Z " fill="#5E30A4" transform="translate(15,210)"/>
<path d="M0 0 C0.99 0.33 1.98 0.66 3 1 C1.375 7.75 1.375 7.75 -2 10 C-2.22036864 6.14354879 -1.60355101 3.50776784 0 0 Z " fill="#7437D0" transform="translate(114,179)"/>
<path d="M0 0 C2.64 0 5.28 0 8 0 C8.33 0.99 8.66 1.98 9 3 C6.36 3 3.72 3 1 3 C0.67 2.01 0.34 1.02 0 0 Z " fill="#672CBE" transform="translate(39,222)"/>
<path d="M0 0 C0 0.66 0 1.32 0 2 C0.66 2.33 1.32 2.66 2 3 C-1.3 3 -4.6 3 -8 3 C-7 1 -7 1 -5.125 0.375 C-3 0 -3 0 0 0 Z " fill="#6A2FBA" transform="translate(184,222)"/>
<path d="M0 0 C0.88336837 2.4667645 1.1312406 3.63859372 0.22265625 6.140625 C-0.16019531 6.83671875 -0.54304688 7.5328125 -0.9375 8.25 C-1.31777344 8.95640625 -1.69804688 9.6628125 -2.08984375 10.390625 C-2.39019531 10.92171875 -2.69054687 11.4528125 -3 12 C-4.21386936 8.35839192 -3.6674695 7.66834531 -2.0625 4.3125 C-1.49208984 3.10013672 -1.49208984 3.10013672 -0.91015625 1.86328125 C-0.60980469 1.24839844 -0.30945313 0.63351563 0 0 Z " fill="#6635C0" transform="translate(74,60)"/>
<path d="M0 0 C-1 3 -1 3 -4.4375 4.75 C-5.613125 5.1625 -6.78875 5.575 -8 6 C-8.66 5.67 -9.32 5.34 -10 5 C-8.71186658 4.16121545 -7.41936744 3.32913217 -6.125 2.5 C-5.40570313 2.0359375 -4.68640625 1.571875 -3.9453125 1.09375 C-2 0 -2 0 0 0 Z " fill="#6A3EB1" transform="translate(146,180)"/>
<path d="M0 0 C0.33 1.32 0.66 2.64 1 4 C-1.31 5.32 -3.62 6.64 -6 8 C-4.43370627 4.64365629 -2.61658077 2.61658077 0 0 Z " fill="#5824B6" transform="translate(214,204)"/>
<path d="M0 0 C0.66 0 1.32 0 2 0 C2 0.66 2 1.32 2 2 C2.66 2 3.32 2 4 2 C4.625 3.875 4.625 3.875 5 6 C4.34 6.66 3.68 7.32 3 8 C0 2.25 0 2.25 0 0 Z " fill="#6133B0" transform="translate(3,194)"/>
<path d="M0 0 C0.33 1.32 0.66 2.64 1 4 C-3.455 4.495 -3.455 4.495 -8 5 C-8 4.34 -8 3.68 -8 3 C-6.35 3 -4.7 3 -3 3 C-3 2.34 -3 1.68 -3 1 C-2.01 0.67 -1.02 0.34 0 0 Z " fill="#5A2BCB" transform="translate(70,154)"/>
<path d="M0 0 C0.33 0.99 0.66 1.98 1 3 C-0.4375 5.6875 -0.4375 5.6875 -2 8 C-2.66 7.01 -3.32 6.02 -4 5 C-1.125 1.125 -1.125 1.125 0 0 Z " fill="#6234CA" transform="translate(168,148)"/>
<path d="M0 0 C1.65 0 3.3 0 5 0 C3.25 4.875 3.25 4.875 1 6 C0.67 4.02 0.34 2.04 0 0 Z " fill="#8742F2" transform="translate(171,73)"/>
<path d="M0 0 C3.93673644 1.31224548 6.22719294 2.91910327 9 6 C4.75177626 5.52797514 2.80010291 3.03344482 0 0 Z " fill="#7343C0" transform="translate(198,5)"/>
<path d="M0 0 C0.66 0.99 1.32 1.98 2 3 C1.34 3.66 0.68 4.32 0 5 C-0.33 5.99 -0.66 6.98 -1 8 C-1.33 7.34 -1.66 6.68 -2 6 C-2.99 5.67 -3.98 5.34 -5 5 C-3.35 3.35 -1.7 1.7 0 0 Z " fill="#7237CC" transform="translate(7,188)"/>
<path d="M0 0 C0.99 0 1.98 0 3 0 C3 1.65 3 3.3 3 5 C3.66 5.33 4.32 5.66 5 6 C4.01 6.33 3.02 6.66 2 7 C1.34 4.69 0.68 2.38 0 0 Z " fill="#6939B4" transform="translate(0,186)"/>
</svg>
